<?xml version="1.0" encoding="utf-8"?>
<!-- Generator: Adobe Illustrator 25.0.1, SVG Export Plug-In . SVG Version: 6.00 Build 0)  -->
<svg version="1.0" id="katman_1" xmlns="http://www.w3.org/2000/svg" xmlns:xlink="http://www.w3.org/1999/xlink" x="0px" y="0px"
	 viewBox="0 0 600 400" style="enable-background:new 0 0 600 400;" xml:space="preserve">
<style type="text/css">
	.st0{fill-rule:evenodd;clip-rule:evenodd;fill:#A5A3A8;}
	.st1{fill-rule:evenodd;clip-rule:evenodd;fill:#EB0029;}
</style>
<path class="st0" d="M230.8,139.9h23.3c5,0,8.7,1.3,11.3,3.4c2.8,2.4,4.2,5.6,4.2,9.5c0,4.9-2.5,8.1-6.8,9.7v0.2
	c5.3,1.7,8.7,6.3,8.7,12.2c0,5-1.8,8.6-4.9,11.1c-2.8,2.3-6.8,3.6-11.9,3.6h-23.9V139.9z M252.4,159.6c3.5,0,5.8-1.7,5.8-5
	c0-3.1-2.2-4.9-5.7-4.9h-9.8v10H252.4z M253.3,179.8c3.9,0,6.4-2.3,6.4-5.8c0-4-2.8-6-6.5-6h-10.5v11.8H253.3z M276.1,139.9h11v9.2
	h-11L276.1,139.9z M276.1,154h11v35.6h-11L276.1,154z M295.3,180.3v-19.2h-4.6V154h4.6v-11.3H306V154h6.3v7.1H306v16.7
	c0,2.8,1.5,3.5,3.9,3.5c0.6,0,1.8,0,2.8,0l0,0l1.3,0v8.3c-1,0.3-4.7,0.6-7.7,0.6C299.9,190.1,295.3,187.9,295.3,180.3L295.3,180.3z
	 M322.8,150.3h-12.4v-10.4h36.9v10.4h-12.5v39.3h-12L322.8,150.3z M339.9,171.9c0-10.7,7.5-18.9,18.5-18.9
	c11.2,0,18.5,8.1,18.5,18.9s-7.3,18.9-18.5,18.9C347.3,190.8,339.9,182.6,339.9,171.9L339.9,171.9z M365.7,171.9
	c0-6.5-2.6-10.9-7.4-10.9s-7.3,4.4-7.3,10.9s2.5,10.8,7.3,10.8S365.7,178.4,365.7,171.9L365.7,171.9z M380.8,154h10.6v5.6h0.2
	c2.4-4.2,5.5-6,8.6-6.1c0.7-0.1,1.5,0,2.2,0.3v9.7h-0.3c-5.8-0.8-10.3,2.4-10.3,10.2v16h-11L380.8,154z M405.6,154h10.6v5.6h0.2
	c2.4-4.2,5.5-6,8.6-6.1c0.7-0.1,1.5,0,2.2,0.3v9.7h-0.3c-5.8-0.8-10.3,2.4-10.3,10.2v16h-11L405.6,154z M427.5,171.8
	c0-10.7,7.2-18.8,17.8-18.8c4.9,0,8.9,1.7,11.8,4.5c4.1,3.9,6.2,10.1,6.1,17.3h-24.9c0.7,4.8,3.2,7.8,7.8,7.8c2.9,0,4.8-1.3,5.7-3.6
	h10.7c-0.8,3.4-2.9,6.4-5.8,8.4c-2.9,2.1-6.4,3.3-10.8,3.3C434.5,190.7,427.5,182.6,427.5,171.8L427.5,171.8z M452.1,168
	c-0.4-4.2-3-7-6.6-7c-4.2,0-6.3,2.7-7.1,7H452.1z M467,154h10.6v4.9h0.2c2.6-3.8,5.9-5.9,10.7-5.9c7.6,0,12,5.6,12,13.5v23.2h-11
	v-20.9c0-3.8-1.8-6.3-5.4-6.3c-3.7,0-6.1,3.1-6.1,7.5v19.7h-11L467,154z M507.3,180.3v-19.1h-4.6V154h4.6v-11.3h10.7V154h6.3v7.1
	h-6.3v16.7c0,2.8,1.5,3.5,3.9,3.5c0.6,0,1.8,0,2.8,0l0,0l1.3,0v8.3c-1,0.3-4.7,0.6-7.7,0.6C511.9,190.1,507.3,187.9,507.3,180.3z
	 M366.5,241.4c0,8.2-6.8,12.9-16.4,12.9c-12.5,0-18.5-6.9-19-15.7h5.5c0.7,7.5,5.3,11.3,13.7,11.3c6.2,0,10.6-2.8,10.6-8.2
	c0-6-5.3-7.5-13.3-9.2c-7.8-1.7-14.5-3.9-14.5-12.2c0-7.3,6.1-11.6,15.1-11.6c11.1,0,15.7,5.6,16.9,13.7h-5.3
	c-0.8-6.3-4.9-9.4-11.4-9.4c-6,0-10,2.5-10,7.1c0,5,5,6.5,11.6,7.7C358.6,229.4,366.5,231.5,366.5,241.4L366.5,241.4z M230.8,253.4
	h5.6v-20.7h20.4V228h-20.5v-13.7H261v-4.8h-30.2L230.8,253.4z M266,253.4h5v-31.8H266L266,253.4z M266,215.6h5v-6.2H266L266,215.6z
	 M283.2,253.4h-5.1v-44h5L283.2,253.4z M303.9,254.3c7.3,0,12.3-3.9,13.8-10.7h-4.9c-1.1,4.3-4.2,6.5-8.9,6.5
	c-6.5,0-10-4.9-10.4-11.4h24.9c0-10.5-5.2-17.9-14.8-17.9c-9.1,0-15.2,7.5-15.2,16.7C288.4,246.8,294.1,254.3,303.9,254.3
	L303.9,254.3z M303.6,224.8c5.8,0,9.1,3.9,9.4,10.2h-19.3C294.4,229.2,297.6,224.8,303.6,224.8z M376.3,263.9c3.9,0,6.4-1.4,9-7.9
	l13.7-34.4h-5.3l-7.3,19.8c-1,2.6-2.1,6.2-2.1,6.2h-0.1c0,0-1.2-3.6-2.2-6.2l-7.6-19.8h-5.5l12.6,30.9l-1.2,3.1
	c-1.2,3.1-2.7,3.9-4.8,3.9c-1.7,0-2.7-0.3-3.4-0.7h-0.2v4.4C373.1,263.8,374.3,263.9,376.3,263.9L376.3,263.9z M427.1,244.7
	c0,6.4-5.3,9.7-12.7,9.7c-8.8,0-13.7-4.1-14.2-11.3h5.2c0.7,5.5,4.4,7.1,9.2,7.1c5.3,0,7.5-2.3,7.5-5.2c0-3.6-2.5-4.5-8.4-5.7
	c-6.3-1.3-12-2.6-12-9.5c0-5.3,4.1-8.7,11.6-8.7c8,0,11.9,3.8,12.6,10h-5.2c-0.5-4.2-2.8-6-7.6-6c-4.6,0-6.5,2-6.5,4.6
	c0,3.4,3.1,4.1,8.6,5.2C421.7,235.9,427.1,237.4,427.1,244.7L427.1,244.7z M429.3,225.7h4.7v21.8c0,4.5,3,6.2,7.1,6.2
	c1.4,0,2.7-0.2,4-0.4v-4.3h-0.2c-0.9,0.3-1.8,0.4-2.7,0.4c-2.1,0-3.2-0.7-3.2-3v-20.7h6.2v-4.1H439v-10h-5v10h-4.7L429.3,225.7z
	 M477.7,243.6c-1.5,6.8-6.5,10.7-13.8,10.7c-9.8,0-15.5-7.5-15.5-16.7c0-9.2,6.1-16.7,15.2-16.7c9.6,0,14.8,7.4,14.8,17.9h-24.9
	c0.4,6.5,3.9,11.4,10.4,11.4c4.7,0,7.8-2.2,8.9-6.5L477.7,243.6z M472.9,235c-0.3-6.3-3.6-10.2-9.4-10.2c-6,0-9.2,4.4-10,10.2
	L472.9,235z M483.3,253.4h5v-19.8c0-5,4.4-8.5,8.3-8.5c3.3,0,5.5,2.3,5.5,6.3v22.1h5v-19.8c0-5,3.7-8.5,7.9-8.5
	c3.2,0,5.9,2.3,5.9,6.3v22.1h5v-22.3c0-6.6-4-10.2-9.8-10.2c-4.1,0-7.8,2.1-9.8,5.7h-0.1c-1.4-3.7-4.5-5.7-8.4-5.7
	c-3.8,0-7.4,2-9.4,5.3h-0.1v-4.6h-5L483.3,253.4z"/>
<path class="st1" d="M143.5,236.7v-33.1l28.6-16.5l16.4-9.5v21.5c0,0.3,0.3,0.6,0.6,0.6c0.1,0,0.2,0,0.3-0.1l1.4-0.8l8.3-4.8
	c0.9-0.5,1.5-1.6,1.5-2.6V167c0-2.2-1.2-4.2-3.1-5.3l-3-1.8l-17.9-10.4c-0.9-0.5-2.1-0.5-3,0l-9.7,5.6c-0.3,0.2-0.4,0.5-0.2,0.8
	c0.1,0.1,0.1,0.2,0.2,0.2l18.5,10.7l-16.4,9.5l-28.6,16.5l-28.6-16.5L93,167.4l-0.6-0.3l18.5-10.7c0.3-0.2,0.4-0.5,0.2-0.8
	c-0.1-0.1-0.1-0.2-0.2-0.2l-9.7-5.6c-0.9-0.5-2.1-0.5-3,0L80.3,160l-3,1.8c-1.9,1.1-3,3.1-3,5.3v24.2c0,1.1,0.6,2.1,1.5,2.6l8.4,4.8
	l1.4,0.8c0.3,0.2,0.7,0.1,0.8-0.2c0.1-0.1,0.1-0.2,0.1-0.3v-21.4l0.6,0.3l15.8,9.2l28.6,16.5v52.1L112.8,245
	c-0.3-0.2-0.7-0.1-0.8,0.2c-0.1,0.1-0.1,0.2-0.1,0.3v11.3c0,1.1,0.6,2.1,1.5,2.6l17.9,10.4l3,1.8c1.9,1.1,4.2,1.1,6.1,0l3-1.8
	l17.9-10.4c0.9-0.5,1.5-1.6,1.5-2.6v-11.3c0-0.3-0.3-0.6-0.6-0.6c-0.1,0-0.2,0-0.3,0.1l-18.5,10.7V236.7z M176.7,236.6
	c-0.9,0.5-1.5,1.6-1.5,2.6v11.3c0,0.3,0.3,0.6,0.6,0.6c0.1,0,0.2,0,0.3-0.1l21.6-12.5c1.9-1.1,3-3.1,3-5.3v-25
	c0-0.3-0.3-0.6-0.6-0.6c-0.1,0-0.2,0-0.3,0.1l-2.8,1.6l-6.9,4c-0.9,0.5-1.5,1.6-1.5,2.6v13.7L176.7,236.6z M99.7,250.5
	c0,0.3-0.3,0.6-0.6,0.6c-0.1,0-0.2,0-0.3-0.1l-21.6-12.5c-1.9-1.1-3-3.1-3-5.3v-25c0-0.3,0.3-0.6,0.6-0.6c0.1,0,0.2,0,0.3,0.1
	l2.9,1.7l6.8,4c0.9,0.5,1.5,1.6,1.5,2.6v13.8l11.8,6.9c0.9,0.5,1.5,1.6,1.5,2.6C99.7,239.2,99.7,250.5,99.7,250.5z M112.8,141.1
	c-0.3,0.2-0.4,0.5-0.2,0.8c0.1,0.1,0.1,0.2,0.2,0.2l6.4,3.7l3.3,1.9c0.9,0.5,2.1,0.5,3,0l11.8-6.9l11.9,6.9c0.9,0.5,2.1,0.5,3,0
	l3.4-1.9l6.4-3.7c0.3-0.2,0.4-0.5,0.2-0.8c-0.1-0.1-0.1-0.2-0.2-0.2l-21.6-12.5c-1.9-1.1-4.2-1.1-6.1,0L112.8,141.1z"/>
</svg>
