<svg width="294" height="88" viewBox="0 0 294 88" fill="none" xmlns="http://www.w3.org/2000/svg">
<path d="M34.928 18.228C34.7707 19.7227 34.6527 21.178 34.574 22.594C34.5347 23.9707 34.515 25.0327 34.515 25.78C34.515 26.724 34.5347 27.609 34.574 28.435C34.6133 29.261 34.6527 29.9887 34.692 30.618H33.335C33.0597 27.8647 32.686 25.7013 32.214 24.128C31.742 22.5153 30.916 21.355 29.736 20.647C28.556 19.939 26.727 19.585 24.249 19.585H21.063V53.156C21.063 54.7293 21.2007 55.9093 21.476 56.696C21.7907 57.4827 22.3807 58.0137 23.246 58.289C24.1113 58.5643 25.37 58.7413 27.022 58.82V60C25.9993 59.9213 24.7013 59.882 23.128 59.882C21.5547 59.8427 19.9617 59.823 18.349 59.823C16.579 59.823 14.9073 59.8427 13.334 59.882C11.8 59.882 10.561 59.9213 9.617 60V58.82C11.269 58.7413 12.5277 58.5643 13.393 58.289C14.2583 58.0137 14.8287 57.4827 15.104 56.696C15.4187 55.9093 15.576 54.7293 15.576 53.156V19.585H12.39C9.95133 19.585 8.12233 19.939 6.903 20.647C5.723 21.355 4.897 22.5153 4.425 24.128C3.953 25.7013 3.57933 27.8647 3.304 30.618H1.947C2.02567 29.9887 2.065 29.261 2.065 28.435C2.10433 27.609 2.124 26.724 2.124 25.78C2.124 25.0327 2.08467 23.9707 2.006 22.594C1.96667 21.178 1.86833 19.7227 1.711 18.228C3.363 18.2673 5.15267 18.3067 7.08 18.346C9.04667 18.3853 11.0133 18.405 12.98 18.405C14.9467 18.405 16.7363 18.405 18.349 18.405C19.9617 18.405 21.7317 18.405 23.659 18.405C25.6257 18.405 27.5923 18.3853 29.559 18.346C31.5257 18.3067 33.3153 18.2673 34.928 18.228ZM56.7045 28.789C57.7665 28.789 58.6909 29.0053 59.4775 29.438C60.3035 29.8707 60.9329 30.441 61.3655 31.149C61.8375 31.8177 62.0735 32.5847 62.0735 33.45C62.0735 34.4333 61.7589 35.2987 61.1295 36.046C60.5395 36.7933 59.7332 37.167 58.7105 37.167C57.8845 37.167 57.1569 36.9113 56.5275 36.4C55.8982 35.8493 55.5835 35.0823 55.5835 34.099C55.5835 33.3517 55.7802 32.7223 56.1735 32.211C56.6062 31.6603 57.0782 31.2277 57.5895 30.913C57.3142 30.5197 56.9012 30.323 56.3505 30.323C55.1312 30.323 54.0102 30.6967 52.9875 31.444C51.9649 32.152 51.0995 33.0763 50.3915 34.217C49.6835 35.3577 49.1329 36.577 48.7395 37.875C48.3462 39.1337 48.1495 40.3137 48.1495 41.415V53.923C48.1495 55.8503 48.7002 57.1483 49.8015 57.817C50.9422 58.4463 52.4762 58.761 54.4035 58.761V60C53.4989 59.9607 52.2205 59.9213 50.5685 59.882C48.9165 59.8033 47.1662 59.764 45.3175 59.764C43.9802 59.764 42.6429 59.8033 41.3055 59.882C40.0075 59.9213 39.0242 59.9607 38.3555 60V58.761C39.9682 58.761 41.1089 58.466 41.7775 57.876C42.4855 57.286 42.8395 56.165 42.8395 54.513V36.046C42.8395 34.276 42.5249 32.978 41.8955 32.152C41.2662 31.2867 40.0862 30.854 38.3555 30.854V29.615C39.6142 29.733 40.8335 29.792 42.0135 29.792C43.1542 29.792 44.2359 29.733 45.2585 29.615C46.3205 29.4577 47.2842 29.2413 48.1495 28.966V36.341C48.5822 35.2003 49.1919 34.0597 49.9785 32.919C50.8045 31.739 51.7879 30.7557 52.9285 29.969C54.0692 29.1823 55.3279 28.789 56.7045 28.789ZM77.9316 28.789C80.449 28.789 82.7106 29.3397 84.7166 30.441C86.7226 31.5423 88.3156 33.273 89.4956 35.633C90.715 37.993 91.3246 41.061 91.3246 44.837C91.3246 48.613 90.715 51.681 89.4956 54.041C88.3156 56.3617 86.7226 58.0727 84.7166 59.174C82.7106 60.2753 80.449 60.826 77.9316 60.826C75.4536 60.826 73.192 60.2753 71.1466 59.174C69.1406 58.0727 67.528 56.3617 66.3086 54.041C65.1286 51.681 64.5386 48.613 64.5386 44.837C64.5386 41.061 65.1286 37.993 66.3086 35.633C67.528 33.273 69.1406 31.5423 71.1466 30.441C73.192 29.3397 75.4536 28.789 77.9316 28.789ZM77.9316 29.969C75.6896 29.969 73.841 31.1293 72.3856 33.45C70.9696 35.7707 70.2616 39.5663 70.2616 44.837C70.2616 50.1077 70.9696 53.9033 72.3856 56.224C73.841 58.5053 75.6896 59.646 77.9316 59.646C80.1736 59.646 82.0026 58.5053 83.4186 56.224C84.874 53.9033 85.6016 50.1077 85.6016 44.837C85.6016 39.5663 84.874 35.7707 83.4186 33.45C82.0026 31.1293 80.1736 29.969 77.9316 29.969ZM115.624 28.789C117.119 28.789 118.358 28.9857 119.341 29.379C120.364 29.7723 121.209 30.323 121.878 31.031C122.625 31.8177 123.156 32.801 123.471 33.981C123.786 35.161 123.943 36.754 123.943 38.76V54.513C123.943 56.165 124.277 57.286 124.946 57.876C125.654 58.466 126.814 58.761 128.427 58.761V60C127.758 59.9607 126.736 59.9213 125.359 59.882C123.982 59.8033 122.645 59.764 121.347 59.764C120.049 59.764 118.771 59.8033 117.512 59.882C116.293 59.9213 115.368 59.9607 114.739 60V58.761C116.155 58.761 117.158 58.466 117.748 57.876C118.338 57.286 118.633 56.165 118.633 54.513V37.462C118.633 36.2427 118.535 35.1217 118.338 34.099C118.141 33.0763 117.689 32.2503 116.981 31.621C116.312 30.9917 115.27 30.677 113.854 30.677C112.202 30.677 110.747 31.149 109.488 32.093C108.269 33.037 107.305 34.335 106.597 35.987C105.928 37.5997 105.594 39.409 105.594 41.415V54.513C105.594 56.165 105.889 57.286 106.479 57.876C107.069 58.466 108.072 58.761 109.488 58.761V60C108.859 59.9607 107.915 59.9213 106.656 59.882C105.437 59.8033 104.178 59.764 102.88 59.764C101.582 59.764 100.245 59.8033 98.8679 59.882C97.4912 59.9213 96.4685 59.9607 95.7999 60V58.761C97.4125 58.761 98.5532 58.466 99.2219 57.876C99.9299 57.286 100.284 56.165 100.284 54.513V36.046C100.284 34.276 99.9692 32.978 99.3399 32.152C98.7105 31.2867 97.5305 30.854 95.7999 30.854V29.615C97.0585 29.733 98.2779 29.792 99.4579 29.792C100.599 29.792 101.68 29.733 102.703 29.615C103.765 29.4577 104.729 29.2413 105.594 28.966V35.928C106.617 33.2533 108.033 31.4047 109.842 30.382C111.691 29.32 113.618 28.789 115.624 28.789Z" fill="white"/>
<path d="M165.583 18.228V19.408C164.836 19.5653 164.029 20.0177 163.164 20.765C162.338 21.5123 161.591 22.771 160.922 24.541L147.057 60.295C146.978 60.295 146.9 60.295 146.821 60.295C146.742 60.295 146.664 60.295 146.585 60.295C146.506 60.295 146.428 60.295 146.349 60.295C146.27 60.295 146.192 60.295 146.113 60.295L131.717 23.184C131.127 21.6893 130.458 20.706 129.711 20.234C128.964 19.7227 128.275 19.4473 127.646 19.408V18.228C128.433 18.2673 129.396 18.3067 130.537 18.346C131.717 18.3853 132.858 18.405 133.959 18.405C135.493 18.405 136.929 18.3853 138.266 18.346C139.603 18.3067 140.685 18.2673 141.511 18.228V19.408C140.174 19.4473 139.151 19.6047 138.443 19.88C137.774 20.1553 137.401 20.647 137.322 21.355C137.283 22.0237 137.519 23.0267 138.03 24.364L149.004 53.451L148.06 54.454L158.326 27.786C159.152 25.662 159.545 24.01 159.506 22.83C159.467 21.6107 159.014 20.7453 158.149 20.234C157.284 19.7227 156.025 19.4473 154.373 19.408V18.228C155.514 18.2673 156.674 18.3067 157.854 18.346C159.034 18.3853 160.135 18.405 161.158 18.405C162.181 18.405 163.026 18.3853 163.695 18.346C164.364 18.3067 164.993 18.2673 165.583 18.228ZM177.814 28.789C180.332 28.789 182.593 29.3397 184.599 30.441C186.605 31.5423 188.198 33.273 189.378 35.633C190.598 37.993 191.207 41.061 191.207 44.837C191.207 48.613 190.598 51.681 189.378 54.041C188.198 56.3617 186.605 58.0727 184.599 59.174C182.593 60.2753 180.332 60.826 177.814 60.826C175.336 60.826 173.075 60.2753 171.029 59.174C169.023 58.0727 167.411 56.3617 166.191 54.041C165.011 51.681 164.421 48.613 164.421 44.837C164.421 41.061 165.011 37.993 166.191 35.633C167.411 33.273 169.023 31.5423 171.029 30.441C173.075 29.3397 175.336 28.789 177.814 28.789ZM177.814 29.969C175.572 29.969 173.724 31.1293 172.268 33.45C170.852 35.7707 170.144 39.5663 170.144 44.837C170.144 50.1077 170.852 53.9033 172.268 56.224C173.724 58.5053 175.572 59.646 177.814 59.646C180.056 59.646 181.885 58.5053 183.301 56.224C184.757 53.9033 185.484 50.1077 185.484 44.837C185.484 39.5663 184.757 35.7707 183.301 33.45C181.885 31.1293 180.056 29.969 177.814 29.969ZM202.409 14.865C203.431 14.865 204.316 15.2387 205.064 15.986C205.811 16.7333 206.185 17.6183 206.185 18.641C206.185 19.6637 205.811 20.5487 205.064 21.296C204.316 22.0433 203.431 22.417 202.409 22.417C201.386 22.417 200.501 22.0433 199.754 21.296C199.006 20.5487 198.633 19.6637 198.633 18.641C198.633 17.6183 199.006 16.7333 199.754 15.986C200.501 15.2387 201.386 14.865 202.409 14.865ZM205.477 28.966V54.513C205.477 56.165 205.811 57.286 206.48 57.876C207.188 58.466 208.348 58.761 209.961 58.761V60C209.292 59.9607 208.269 59.9213 206.893 59.882C205.555 59.8033 204.198 59.764 202.822 59.764C201.484 59.764 200.127 59.8033 198.751 59.882C197.374 59.9213 196.351 59.9607 195.683 60V58.761C197.295 58.761 198.436 58.466 199.105 57.876C199.813 57.286 200.167 56.165 200.167 54.513V36.046C200.167 34.276 199.852 32.978 199.223 32.152C198.593 31.2867 197.413 30.854 195.683 30.854V29.615C196.941 29.733 198.161 29.792 199.341 29.792C200.481 29.792 201.563 29.733 202.586 29.615C203.648 29.4577 204.611 29.2413 205.477 28.966ZM227.718 28.789C228.977 28.789 230.196 28.9463 231.376 29.261C232.556 29.5757 233.618 30.0477 234.562 30.677C235.467 31.267 236.155 31.9553 236.627 32.742C237.099 33.4893 237.335 34.3153 237.335 35.22C237.335 36.282 237.04 37.108 236.45 37.698C235.86 38.2487 235.113 38.524 234.208 38.524C233.343 38.524 232.576 38.2683 231.907 37.757C231.278 37.2457 230.963 36.518 230.963 35.574C230.963 34.6693 231.199 33.9417 231.671 33.391C232.182 32.8403 232.772 32.4863 233.441 32.329C233.048 31.621 232.34 31.031 231.317 30.559C230.334 30.087 229.272 29.851 228.131 29.851C227.148 29.851 226.164 30.087 225.181 30.559C224.198 31.031 223.293 31.8177 222.467 32.919C221.641 33.981 220.972 35.456 220.461 37.344C219.95 39.1927 219.694 41.5133 219.694 44.306C219.694 47.7673 220.087 50.5207 220.874 52.566C221.661 54.6113 222.683 56.0863 223.942 56.991C225.24 57.8563 226.656 58.289 228.19 58.289C229.213 58.289 230.255 58.0923 231.317 57.699C232.379 57.3057 233.382 56.6763 234.326 55.811C235.27 54.9063 236.076 53.7067 236.745 52.212L237.866 52.625C237.473 53.8837 236.824 55.162 235.919 56.46C235.014 57.7187 233.834 58.761 232.379 59.587C230.924 60.413 229.134 60.826 227.01 60.826C224.571 60.826 222.369 60.1967 220.402 58.938C218.435 57.6793 216.862 55.8897 215.682 53.569C214.541 51.209 213.971 48.4163 213.971 45.191C213.971 41.9657 214.541 39.1337 215.682 36.695C216.862 34.217 218.494 32.2897 220.579 30.913C222.664 29.497 225.043 28.789 227.718 28.789ZM255.998 28.789C259.46 28.789 262.154 29.851 264.081 31.975C266.048 34.0597 267.031 37.3243 267.031 41.769H246.204L246.145 40.648H261.367C261.446 38.7207 261.289 36.9507 260.895 35.338C260.502 33.686 259.873 32.3683 259.007 31.385C258.181 30.4017 257.1 29.91 255.762 29.91C253.953 29.91 252.34 30.8147 250.924 32.624C249.548 34.4333 248.722 37.3047 248.446 41.238L248.623 41.474C248.545 42.064 248.486 42.713 248.446 43.421C248.407 44.129 248.387 44.837 248.387 45.545C248.387 48.2197 248.82 50.5207 249.685 52.448C250.551 54.3753 251.672 55.8503 253.048 56.873C254.464 57.8563 255.92 58.348 257.414 58.348C258.594 58.348 259.715 58.171 260.777 57.817C261.839 57.4237 262.823 56.7943 263.727 55.929C264.632 55.0637 265.419 53.9033 266.087 52.448L267.267 52.92C266.835 54.218 266.127 55.4767 265.143 56.696C264.16 57.9153 262.921 58.9183 261.426 59.705C259.932 60.4523 258.201 60.826 256.234 60.826C253.402 60.826 250.964 60.177 248.918 58.879C246.912 57.581 245.359 55.7913 244.257 53.51C243.195 51.1893 242.664 48.5343 242.664 45.545C242.664 42.0837 243.215 39.114 244.316 36.636C245.418 34.1187 246.971 32.1913 248.977 30.854C250.983 29.4773 253.324 28.789 255.998 28.789Z" fill="#FF7A29"/>
</svg>
